
        <svg xmlns="http://www.w3.org/2000/svg" xmlns:xlink="http://www.w3.org/1999/xlink" version="1.1" width="3160.1525093405066" height="640.5310081893072" viewBox="0 0 3160.1525093405066 640.5310081893072">
			
			<g transform="scale(8.007625467025317) translate(10, 10)">
				<defs id="SvgjsDefs1069"><linearGradient id="SvgjsLinearGradient1074"><stop id="SvgjsStop1075" stop-color="#616161" offset="0"/><stop id="SvgjsStop1076" stop-color="#e6e7e8" offset="0.5"/><stop id="SvgjsStop1077" stop-color="#616161" offset="1"/></linearGradient></defs><g id="SvgjsG1070" featureKey="nRdZyp-0" transform="matrix(2.5645230490925424,0,0,2.5645230490925424,-7.092772583951322,-14.099677169786995)" fill="#fff"><title xmlns="http://www.w3.org/2000/svg">data, seo, marketing, business, web, internet, website, optimization, technology, search, engine, co</title><path xmlns="http://www.w3.org/2000/svg" d="M27.86,20a5.25,5.25,0,0,1-4.09,2L14.5,22A1.5,1.5,0,0,0,13,23.48v3.27l1.08-1.62a.5.5,0,0,1,.83.55l-2,3h0a.49.49,0,0,1-.16.15h0a.45.45,0,0,1-.45,0l0,0a.49.49,0,0,1-.12-.11l0,0-2-3a.5.5,0,0,1,.83-.55L12,26.76V23.48a2.48,2.48,0,0,1,.74-1.78A2.43,2.43,0,0,1,14.51,21l9.26,0a4.26,4.26,0,0,0,3.32-1.58,4.3,4.3,0,0,0,.85-3.61,4.18,4.18,0,0,0-1.73-2.57A4.25,4.25,0,0,0,21.79,13a6.47,6.47,0,0,1-2.49,4.17.5.5,0,1,1-.6-.8,5.47,5.47,0,0,0,2.14-3.76v0a4.43,4.43,0,0,0,0-.6,5.36,5.36,0,0,0-3.5-5.12,5.56,5.56,0,0,0-5.11.66A5.48,5.48,0,0,0,10,12a.56.56,0,0,1-.15.49.52.52,0,0,1-.47.15,4.27,4.27,0,1,0-2.07,8.28l2.21,0a1.61,1.61,0,0,0,1.07-.44A1.49,1.49,0,0,0,11,19.41V16.15L9.92,17.78a.5.5,0,1,1-.83-.55l2-3,0,0a.48.48,0,0,1,.78,0l0,0,2,3a.5.5,0,1,1-.83.55L12,16.15v3.26a2.48,2.48,0,0,1-.74,1.77,2.63,2.63,0,0,1-1.78.73l-2.27,0H7.1A5.27,5.27,0,0,1,9,11.51,6.48,6.48,0,0,1,17.71,5.9a6.35,6.35,0,0,1,4.17,5.92,5.26,5.26,0,0,1,4.89.59,5.19,5.19,0,0,1,2.15,3.19A5.3,5.3,0,0,1,27.86,20Z"/></g><g id="SvgjsG1071" featureKey="Q4qmbg-0" transform="matrix(2.3482567029629124,0,0,2.3482567029629124,89.27602370261461,-4.868444537554096)" fill="#fff"><path d="M16.98 20 l-2.98 0 l0 -5.64 c0 -1.52 -0.42 -2.16 -1.54 -2.16 c-1.2 0 -1.9 0.64 -1.9 2.16 l0 5.64 l-2.98 0 l0 -5.64 c0 -1.52 -0.4 -2.16 -1.54 -2.16 c-1.2 0 -1.92 0.64 -1.92 2.16 l0 5.64 l-2.96 0 l0 -9.88 l2.96 0 l0 0.9 c0.7 -0.7 1.76 -1.04 2.7 -1.04 c1.4 0 2.3 0.52 2.94 1.34 c0.54 -0.66 1.7 -1.26 3.44 -1.34 c2.78 0 3.78 1.32 3.78 4.38 l0 5.64 z M23.523895833333334 12.42 c-1.22 0 -2.24 1.08 -2.24 2.66 c0 1.56 1.02 2.64 2.24 2.64 c1.24 0 2.26 -1.08 2.26 -2.64 c0 -1.58 -1.02 -2.66 -2.26 -2.66 z M23.523895833333334 9.98 c2.9 0 5.22 2.18 5.22 5.1 s-2.32 5.08 -5.22 5.08 c-2.88 0 -5.2 -2.16 -5.2 -5.08 s2.32 -5.1 5.2 -5.1 z M29.447791666666667 15.08 c0 -2.92 1.92 -5.1 4.82 -5.1 c0.64 0 1.9 0.34 2.24 0.82 l0 -5.32 l2.98 0 l0 14.52 l-2.98 0 l0 -0.66 c-0.36 0.46 -1.38 0.82 -2.04 0.82 c-2.9 0 -5.02 -2.16 -5.02 -5.08 z M32.427791666666664 15.08 c0 1.56 1 2.84 2.24 2.84 c1.36 0 2.24 -1.52 2.24 -2.84 s-0.86 -2.86 -2.24 -2.86 c-1.24 0 -2.24 1.28 -2.24 2.86 z M43.291687499999995 13.04 l-2.2 -1.26 c1.1 -1.24 2.58 -1.82 4.12 -1.82 c2.96 0 4.16 1.62 4.16 3.14 l0 6.9 l-2.96 0 l0 -0.7 c-0.46 0.48 -1.28 0.84 -2.2 0.84 c-2.7 0 -3.74 -1.2 -3.74 -3.04 c0 -2.08 1.68 -3.48 4.4 -3.48 l1.54 0 c0 -0.74 -0.56 -1.22 -1.4 -1.22 c-0.86 0 -1.28 0.16 -1.72 0.64 z M46.4116875 16.740000000000002 l0 -0.88 l-1.74 0 c-0.78 0 -1.36 0.54 -1.24 1.3 c0.08 0.54 0.56 0.76 1.24 0.76 c1.3 0 1.74 -0.74 1.74 -1.18 z M66.41947916666666 15.08 l0 0.66 l-7.04 0 c0 1.16 1.18 1.98 2.16 1.98 c0.96 0 1.84 -0.38 2.3 -1.22 l1.98 1.82 c-0.8 1.08 -2.02 1.84 -4.28 1.84 c-3.24 0 -5.22 -2.16 -5.22 -5.08 s1.92 -5.1 5.04 -5.1 s5.06 2.14 5.06 5.1 z M59.43947916666666 13.86 l3.88 0 c-0.16 -0.94 -0.84 -1.44 -1.96 -1.44 c-1.08 0 -1.74 0.58 -1.92 1.44 z M76.30337499999999 10.12 l-3.5 4.94 l3.5 4.94 l-3.4 0 l-1.68 -2.72 l-1.68 2.72 l-3.42 0 l3.52 -4.94 l-3.52 -4.94 l3.4 0 l1.68 2.7 c0.6 -0.88 1.12 -1.84 1.7 -2.7 l3.4 0 z M86.98727083333333 15.08 c0 2.92 -1.94 5.08 -4.84 5.08 c-0.6 0 -1.78 -0.36 -2.24 -0.82 l0 5.3 l-2.96 0 l0 -14.52 l2.96 0 l0 0.7 c0.42 -0.5 1.18 -0.84 2.04 -0.84 c2.9 0 5.04 2.18 5.04 5.1 z M84.00727083333332 15.08 c0 -1.58 -1.02 -2.86 -2.26 -2.86 c-0.76 0 -1.5 0.56 -1.9 1.36 c-0.18 0.4 -0.32 0.96 -0.32 1.5 c0 0.56 0.12 1.06 0.32 1.48 c0.42 0.82 1.12 1.36 1.9 1.36 c1.24 0 2.26 -1.28 2.26 -2.84 z M98.11116666666666 15.08 l0 0.66 l-7.04 0 c0 1.16 1.18 1.98 2.16 1.98 c0.96 0 1.84 -0.38 2.3 -1.22 l1.98 1.82 c-0.8 1.08 -2.02 1.84 -4.28 1.84 c-3.24 0 -5.22 -2.16 -5.22 -5.08 s1.92 -5.1 5.04 -5.1 s5.06 2.14 5.06 5.1 z M91.13116666666666 13.86 l3.88 0 c-0.16 -0.94 -0.84 -1.44 -1.96 -1.44 c-1.08 0 -1.74 0.58 -1.92 1.44 z M105.85506249999999 10.26 l-0.4 2.22 c-0.74 -0.32 -0.88 -0.26 -1.22 -0.26 c-1.2 0 -1.9 0.64 -1.9 2.22 l0 5.56 l-2.96 0 l0 -9.88 l2.96 0 l0 0.88 c0.38 -0.68 1.42 -1.02 2.08 -1.02 c0.62 0 0.98 0.02 1.44 0.28 z M109.79895833333333 15.8 c0 0.72 -0.02 1.92 1.08 1.92 c0.54 0 0.88 -0.22 1.26 -0.5 l0 2.44 c-0.46 0.26 -1.02 0.5 -1.62 0.5 c-2.54 0 -3.68 -1.08 -3.68 -4.36 l0 -3.24 l-1.1 0 l0 -2.44 l1.1 0 l0 -2.84 l2.96 0 l0 2.84 l2.34 0 l0 2.44 l-2.34 0 l0 3.24 z M116.52285416666666 13.24 c0 1.18 5 0.62 5 3.74 c0 2.04 -1.8 3.18 -4.04 3.18 c-1.42 0 -2.84 -0.7 -3.96 -1.82 l1.94 -1.94 c0.56 0.68 1.36 1.2 2.02 1.26 s1.22 -0.22 1.32 -0.52 c0.24 -0.76 -1.14 -0.8 -1.56 -0.92 c-1.58 -0.48 -3.42 -1.14 -3.42 -3.1 c0 -2.34 2.44 -3.14 3.66 -3.14 c1.4 0 2.82 0.64 3.96 1.8 l-1.92 1.92 c-0.52 -0.68 -1.42 -1.22 -2.04 -1.22 c-0.32 0 -0.96 0.12 -0.96 0.76 z"/></g>
			</g>
		</svg>
	